<?xml version="1.0" encoding="UTF-8"?>
<!-- Generator: Adobe Illustrator 23.1.1, SVG Export Plug-In . SVG Version: 6.00 Build 0)  -->
<svg xmlns="http://www.w3.org/2000/svg" xmlns:xlink="http://www.w3.org/1999/xlink" version="1.1" id="Layer_1" x="0px" y="0px" viewBox="0 0 160 160" style="enable-background:new 0 0 160 160;" xml:space="preserve">
<style type="text/css">
	.st0{fill:none;stroke:#43D6B9;stroke-width:2;stroke-linecap:round;stroke-linejoin:round;}
	.st1{fill-rule:evenodd;clip-rule:evenodd;fill:#43D6B9;}
</style>
<title>Group 13</title>
<desc>Created with Sketch.</desc>
<path id="Stroke-1" class="st0" d="M94.258,59.2L94.258,59.2c-4.5-1.1-9.1,1.8-10,6.4l-4.7,23.5c-0.9,4.3,1.8,8.5,6,9.6  c4.5,1.1,9.1-1.8,10-6.4l4.7-23.5C101.158,64.5,98.558,60.3,94.258,59.2z"></path>
<path id="Stroke-3" class="st0" d="M70.058,94.8c4.4,1,8.6-1.9,9.5-6.4l4.7-23.5c0.9-4.3-1.8-8.5-6-9.6c-4.5-1.1-9,1.8-9.9,6.4  l-4,20.1"></path>
<path id="Stroke-5" class="st0" d="M64.358,82l3.9-19.4c1-5-2.8-9.6-7.9-9.6c-3.8,0-7.1,2.7-7.9,6.4l-4,20.6"></path>
<path id="Stroke-7" class="st0" d="M112.458,95l-1.1,12.2c-0.7,9.2-5.5,17.5-12.9,22.6V158"></path>
<path id="Stroke-9" class="st0" d="M101.958,102.7L101.958,102.7c4.7,1.1,9.4-1.7,10.4-6.3l4.9-21.1c0.9-3.7-1-7.6-4.5-9.3l-0.4-0.2  c-5.1-2.5-11.1,0.4-12.2,5.8l-4.5,21.4C94.758,97.4,97.558,101.7,101.958,102.7z"></path>
<path id="Stroke-11" class="st0" d="M63.458,99l2.2,3.2c4.9,7,5.1,16.5,0.6,23.8"></path>
<path id="Stroke-13" class="st0" d="M53.358,97.8l4.4,1.1c6.4,1.6,13-2.3,14.6-8.8l1.1-4.4l-18.4-6.4c-3.4-1-6.9,0.4-8.9,3.3  l-8.7,13c-2.5,3.8-2.7,8.7-0.4,12.7l12.4,21.6V158"></path>
<path id="Fill-15" class="st1" d="M29.958,121.3c-4.7-10-9.6-21.6-6.6-32.8c0.6-2.3,1.6-4.6,3.4-6.3c1.9-1.8,4.6-2.3,6.6-3.9  c3.4-2.6,4.8-7,4.9-11.1c0.2-5.5-2-10.8-3.1-16.1c-1-5.1-1-10.7,1-15.5c1.8-4.4,5.6-8.1,10.3-9.2c2-0.5,5-0.7,6.8,0.6  c2,1.5,1.4,4.6,1.6,6.7c0.4,4.3,3.6,7.3,7.8,8.2c4.9,1.1,9.7-1.3,13.8-3.9c4.6-2.9,9.2-6.4,14.8-6.3c4.9,0.1,11.3,3,10.6,8.7  c-0.3,2.5-1.3,4.9-0.8,7.4c0.4,2.1,1.6,4,3.1,5.4c3.7,3.5,8.9,4.8,13.8,5.9c4.9,1.1,9.9,2.2,14,5.2c3.8,2.8,6.4,7.1,5.4,11.9  c-1,4.5-4.1,8.2-6.3,12.2c-2.6,4.7-3.6,9.8-3.7,15.1c-0.1,5.2,1,10.6,0.1,15.8c-0.8,5.1-3.9,8.7-8.4,11c-2.1,1.1-4.3,1.9-6.5,2.6  c-1.2,0.4-0.7,2.4,0.5,1.9c4.5-1.5,9.2-3.4,12.5-7c3.5-3.9,4.2-9,4.1-14c-0.1-5.7-0.9-11.4,0.2-17.1c0.5-2.8,1.6-5.3,3-7.8  c1.2-2.1,2.6-4.1,3.8-6.3c2.3-4,3.8-8.5,2.1-13c-1.6-4.3-5.4-7.5-9.5-9.4c-5.1-2.4-10.7-3-16-4.6c-4.6-1.4-10.6-4.4-10.3-10.1  c0.2-2.7,1.4-5.2,0.8-7.9c-0.4-2.3-1.9-4.1-3.8-5.4c-4.3-3.1-10.2-3.5-15-1.6c-5.3,2-9.5,6.2-14.8,8.3c-4.3,1.7-10.6,1.6-12.8-3.3  c-1-2.2-0.4-4.7-0.9-6.9s-2-3.8-4.2-4.4c-4.6-1.3-9.5,0.5-13,3.5c-3.8,3.2-5.9,8-6.6,12.9c-0.8,5.7,0.4,11.1,1.9,16.6  c1.4,5.1,2.7,10.7,0.3,15.8c-1.1,2.3-2.8,3.8-5.1,4.8c-2.3,1.1-4.3,2.1-5.9,4.2c-3.2,4.3-3.8,10.2-3.5,15.3  c0.3,5.8,2.1,11.4,4.2,16.8c1.1,2.7,2.3,5.3,3.5,7.9C28.758,123.5,30.558,122.5,29.958,121.3"></path>
<path id="Fill-17" class="st1" d="M141.058,102.5c-0.8-6.3,4.2-10.7,8-14.9c3.7-4.2,5.9-9.2,6.4-14.8c0.4-5.3-1-10.6-4-15  c-3.1-4.6-7.5-7.3-12.7-9c-5.1-1.6-10.7-2.5-15.1-5.9c-2-1.6-3.6-3.7-4.4-6.2s-0.8-5.1-0.6-7.7c0.3-5,1.4-10.4-0.3-15.3  c-1.6-4.6-5.4-7.6-9.7-9.4c-4.5-1.9-9.7-3.2-14.6-2.8c-2.4,0.2-4.8,0.8-6.9,2c-2.2,1.3-3.8,3.3-5.5,5.3c-1.8,2.1-3.7,3.9-6.5,4.4  s-5.7-0.2-8.2-1.3c-5.3-2.4-9.4-6.7-14.6-9.3c-5.3-2.6-11.3-3-17.1-2.5c-5.3,0.5-10.3,2.1-13.6,6.5c-6.8,9.3-3.1,21.7-0.6,31.8  c1.4,5.7,2.6,11.8,1.4,17.6c-0.6,2.8-1.7,5.4-3.4,7.7c-1.6,2.4-3.6,4.3-5.4,6.4c-7,7.7-10.2,18.3-8.9,28.6c0.3,2.6,0.9,5.1,1.7,7.5  c0.4,1.2,2.4,0.7,1.9-0.5c-3.4-9.7-2.2-21,3.3-29.7c2.8-4.5,7-7.7,9.9-12.1c2.9-4.5,3.7-10,3.3-15.3c-0.8-11.3-6.9-22.3-4.5-33.8  c1.1-5,3.8-9.5,8.8-11.3c2.6-1,5.5-1.3,8.2-1.4c3-0.1,6,0,8.9,0.7c5.8,1.2,10.2,4.9,14.9,8.2c4.2,2.8,9.1,5.2,14.3,4.3  c2.5-0.4,4.6-1.7,6.3-3.5c1.8-1.8,3.2-4,5.2-5.6c4.1-3.2,9.7-3,14.5-1.9c4.5,1,9.5,2.6,12.7,6.1c3.6,3.9,3.3,9.4,2.9,14.3  s-1,10,1.1,14.6c2,4.3,6.2,7,10.5,8.6c5.2,2,10.9,2.6,15.6,5.6c4.3,2.8,7.4,7.4,8.6,12.4c1.3,5.3,0.5,11.2-2.1,16  c-2.7,4.9-7.6,8.1-10.2,13.1c-1.2,2.3-1.8,4.9-1.5,7.5C139.158,103.8,141.158,103.8,141.058,102.5"></path>
</svg>
