<?xml version="1.0" encoding="UTF-8"?>
<!-- Generator: Adobe Illustrator 23.1.1, SVG Export Plug-In . SVG Version: 6.00 Build 0)  -->
<svg xmlns="http://www.w3.org/2000/svg" xmlns:xlink="http://www.w3.org/1999/xlink" version="1.1" id="Layer_1" x="0px" y="0px" viewBox="0 0 160 160" style="enable-background:new 0 0 160 160;" xml:space="preserve">
<style type="text/css">
	.st0{fill:none;stroke:#43D6B9;stroke-width:2;stroke-linecap:round;stroke-linejoin:round;}
	.st1{fill-rule:evenodd;clip-rule:evenodd;fill:#43D6B9;}
</style>
<title>Group 13</title>
<desc>Created with Sketch.</desc>
<line id="Stroke-1" class="st0" x1="55.5" y1="128" x2="55.5" y2="159"></line>
<line id="Stroke-3" class="st0" x1="104.5" y1="158" x2="104.5" y2="128"></line>
<path id="Stroke-5" class="st0" d="M56.5,61.5V17.1c0-4.5,3.6-8.1,8-8.1s8,3.6,8,8.1v48.4V9.1c0-4.5,3.6-8.1,8-8.1s8,3.6,8,8.1v56.4  V17.1c0-4.5,3.6-8.1,8-8.1s8,3.6,8,8.1v56.4V29.2c0-4.5,3.6-8.1,8-8.1s8,3.6,8,8.1v67.4c0,17.4-11.4,32.6-28,37.4"></path>
<path id="Fill-7" class="st1" d="M129.5,79.4c3.3-0.8,7.2-0.6,9.5,2.2c2.3,2.8,0.9,5.8-1.4,8c-2.2,2-4.8,3.8-5.9,6.7  c-1.1,3,0.4,5.5,2.8,7.3c2.7,2,5.5,4,8,6.3c2.1,1.9,6.8,5.8,4.5,9c-1.8,2.5-5.5,3.2-8.4,3.5c-1.5,0.2-3,0.3-4.5,0.4  c-1.4,0.1-2.9,0.2-3.9,1.3c-1,1.2-0.8,2.8-0.8,4.3c0,1.9,0.2,3.9,0.1,5.9c-0.1,1.8-1.5,2.8-3.2,2.6c-2-0.1-3.7-1.7-5.1-2.9  c-1-0.9-2.4,0.6-1.4,1.4c2.4,2.1,5.3,4.4,8.7,3.2c3.6-1.3,3-5,3-8.1c0-1-0.1-2-0.1-3c0-0.9-0.1-2,1-2.4c1.5-0.6,3.5-0.4,5.1-0.6  c3.3-0.3,6.8-0.8,9.5-2.9c7.3-5.5-2.9-13.4-7.3-16.8c-2.5-1.9-7.6-4.1-6-8c1.3-3.3,5-4.9,7-7.7c2.2-2.9,1.9-6.7-0.6-9.4  c-2.8-3-7.3-3.2-11.1-2.3C127.7,77.8,128.3,79.7,129.5,79.4"></path>
<path id="Fill-9" class="st1" d="M31,77.5c-3.4-0.8-7.2-0.7-10.1,1.5c-2.4,1.8-3.8,5-2.7,8c1.2,3.2,4.3,4.9,6.5,7.3  c1.2,1.3,2.5,3.3,1.9,5.2c-0.6,1.8-2.6,2.8-4,3.8c-3.2,2.3-6.1,4.8-8.8,7.6c-2.3,2.4-4.7,6-2.3,9.2c2,2.7,5.4,3.7,8.5,4.2  c1.7,0.3,3.4,0.4,5.1,0.5c0.8,0.1,1.8,0.1,2.5,0.4c1,0.4,1,1.3,1,2.2c0,2.3-0.2,4.5-0.2,6.8c0,1.7,0.6,3.2,2.1,4.1  c3.5,2.1,7-0.5,9.6-2.8c1-0.9-0.5-2.3-1.4-1.4c-1.3,1.1-2.7,2.4-4.4,2.8c-1.3,0.3-3,0-3.7-1.2c-0.7-1.3-0.2-3.5-0.2-4.9  c0-1.6,0.3-3.5,0-5.1c-0.7-3-4.3-2.8-6.7-3.1c-3.1-0.3-6.4-0.5-9-2.3c-1.4-1-2.6-2.3-2.2-4.2c0.4-1.8,1.8-3.2,3.1-4.5  c2.5-2.6,5.3-5,8.3-7.1c2.2-1.6,4.8-3.3,4.8-6.3c0-3.1-2.5-5.5-4.7-7.4c-2.5-2.1-5.5-4.9-3.7-8.4c1.9-3.7,6.5-4.1,10.1-3.2  C31.7,79.7,32.3,77.8,31,77.5"></path>
<path id="Stroke-11" class="st0" d="M71.5,101.7v-4c0-9.9-5.5-14.9-14.3-19.4l-1.7-0.9v-4V53.1c0-6.7-5.4-12.1-12-12.1h-4v55.5  c0,17.4,11.4,32.7,28,37.5"></path>
</svg>
