<?xml version="1.0" encoding="UTF-8"?>
<!-- Generator: Adobe Illustrator 23.1.1, SVG Export Plug-In . SVG Version: 6.00 Build 0)  -->
<svg xmlns="http://www.w3.org/2000/svg" xmlns:xlink="http://www.w3.org/1999/xlink" version="1.1" id="Layer_1" x="0px" y="0px" viewBox="0 0 160 160" style="enable-background:new 0 0 160 160;" xml:space="preserve">
<style type="text/css">
	.st0{fill:none;}
	.st1{fill:none;stroke:#43D6B9;stroke-width:2;stroke-linecap:round;stroke-linejoin:round;}
	.st2{fill-rule:evenodd;clip-rule:evenodd;fill:#43D6B9;}
</style>
<title>Group 13</title>
<desc>Created with Sketch.</desc>
<line id="Fill-1" class="st0" x1="128.879" y1="117.419" x2="115.837" y2="104.29"></line>
<line id="Stroke-2" class="st1" x1="128.879" y1="117.419" x2="115.837" y2="104.29"></line>
<path id="Stroke-4" class="st1" d="M66.606,54.368c-0.173-1.209-0.259-2.246-0.259-3.541h13.387c2.073,0,4.059,0.777,5.614,2.159  l0.864,0.777"></path>
<path id="Fill-6" class="st0" d="M92.862,146.698l-13.215-13.215h-5.355c-1.468,0-2.591-0.173-4.059-0.777"></path>
<path id="Stroke-8" class="st1" d="M92.862,146.698l-13.215-13.215h-5.355c-1.468,0-2.591-0.173-4.059-0.777"></path>
<line id="Fill-10" class="st0" x1="23.248" y1="116.987" x2="36.549" y2="103.772"></line>
<line id="Stroke-12" class="st1" x1="23.248" y1="116.987" x2="36.549" y2="103.772"></line>
<path id="Stroke-14" class="st1" d="M76.279,64.042l11.574-11.574c2.764-2.764,7.169-2.764,9.933,0s2.764,7.169,0,9.933  l-8.292,8.292l11.66-11.574c2.764-2.764,7.169-2.764,9.933,0s2.764,7.169,0,9.933L96.144,83.907l11.574-11.574  c2.764-2.764,7.169-2.764,9.933,0c2.764,2.764,2.764,7.169,0,9.933l-14.942,14.856L111,88.83c2.764-2.764,7.169-2.764,9.933,0  s2.764,7.169,0,9.933l-24.27,24.27c-2.505,2.505-5.873,3.887-9.414,3.887H76.107l-19.692,19.865"></path>
<path id="Stroke-16" class="st1" d="M77.92,75.615L77.92,75.615c-2.764,2.764-7.169,2.764-9.933,0L54.773,62.401  c-2.764-2.764-2.764-7.169,0-9.933c2.764-2.764,7.169-2.764,9.933,0L77.92,65.683C80.684,68.447,80.684,72.852,77.92,75.615z"></path>
<path id="Stroke-18" class="st1" d="M67.988,85.548L67.988,85.548c-2.764,2.764-7.169,2.764-9.933,0L44.84,72.333  c-2.764-2.764-2.764-7.169,0-9.933c2.764-2.764,7.169-2.764,9.933,0l13.215,13.215C70.752,78.379,70.752,82.784,67.988,85.548z"></path>
<path id="Stroke-20" class="st1" d="M58.055,95.481L58.055,95.481c-2.764,2.764-7.169,2.764-9.933,0l-9.933-9.933  c-2.764-2.764-2.764-7.169,0-9.933s7.169-2.764,9.933,0l9.933,9.933C60.819,88.312,60.819,92.717,58.055,95.481z"></path>
<path id="Stroke-22" class="st1" d="M48.122,105.413L48.122,105.413c-2.764,2.764-7.169,2.764-9.933,0l-3.282-3.282  c-2.764-2.764-2.764-7.169,0-9.933s7.169-2.764,9.933,0l3.282,3.282C50.886,98.245,50.886,102.649,48.122,105.413z"></path>
<path id="Fill-24" class="st2" d="M80.339,15.502c3.109-1.209,5.873,2.505,4.923,5.355c-0.777,2.332-4.578,2.332-6.478,3.109  c-1.987,0.864-3.541,2.937-3.282,5.182c0.259,2.677,2.937,3.628,5.009,4.75c1.296,0.691,2.764,1.727,3.023,3.282  c0.345,1.641-1.296,2.937-2.85,2.85c-1.036-0.086-1.036,1.641,0,1.641c2.85,0.173,5.269-2.591,4.319-5.355  c-0.518-1.468-1.555-2.591-2.85-3.368c-1.382-0.864-3.109-1.296-4.232-2.418c-1.123-1.036-0.95-2.677-0.086-3.8  c1.036-1.209,2.591-1.555,4.059-1.987c1.296-0.345,2.591-0.691,3.628-1.555c1.209-0.95,1.555-2.418,1.468-3.887  c-0.345-3.455-3.368-6.91-7.169-5.441C78.957,14.292,79.389,15.933,80.339,15.502"></path>
<path id="Fill-26" class="st2" d="M105.732,47.977c2.418,1.036,4.837-0.605,5.528-3.023c0.864-2.937-0.086-6.219,1.209-8.983  c1.296-2.764,3.973-3.455,6.651-2.418c2.332,0.95,4.491,2.505,7.169,2.677c1.468,0.086,2.85-0.432,3.455-1.814  c0.518-1.123,0.432-2.505,0.173-3.714c-0.173-1.036-1.814-0.605-1.641,0.432c0.259,1.468,0.259,3.455-1.727,3.455  c-1.468,0-2.85-0.691-4.146-1.296c-2.505-1.209-5.182-2.677-7.946-1.555c-2.677,1.123-4.059,3.8-4.405,6.564  c-0.259,1.814-0.086,3.628-0.345,5.355c-0.259,1.468-1.468,3.628-3.282,2.764C105.559,46.163,104.695,47.545,105.732,47.977"></path>
<path id="Fill-28" class="st2" d="M146.067,53.936c-2.85-0.864-6.046-0.864-8.81,0.259c-2.332,0.864-4.491,2.677-4.232,5.355  c0.173,1.382,0.864,2.505,1.555,3.628c0.864,1.382,1.641,2.764,2.246,4.319c0.518,1.382,1.123,3.109,0.345,4.578  c-0.777,1.555-2.591,1.296-3.8,0.432c-1.296-0.95-2.159-2.505-3.368-3.541s-2.591-1.555-4.232-1.296  c-1.036,0.173-0.605,1.727,0.432,1.555c2.937-0.432,4.491,3.628,6.651,4.923c2.159,1.296,4.923,0.777,5.96-1.727  c1.036-2.505-0.345-5.7-1.555-7.946c-1.209-2.246-4.146-5.269-1.468-7.514c2.591-2.246,6.823-2.246,9.933-1.382  C146.671,55.837,147.103,54.196,146.067,53.936"></path>
<path id="Fill-30" class="st2" d="M131.816,91.335c-0.173,2.677,1.296,5.355,3.887,6.305c2.418,0.864,5.528,0.259,7.169-1.727  c0.777-1.036,1.123-2.246,1.727-3.368c0.259-0.518,0.691-1.123,1.382-1.209c0.777,0,1.468,0.691,1.9,1.209  c1.814,2.073,3.282,4.837,6.478,4.491c3.109-0.259,5.01-3.368,5.614-6.132c0.259-1.036-1.382-1.468-1.555-0.432  c-0.605,2.85-3.282,6.564-6.564,4.232c-2.073-1.468-3.541-6.046-6.823-4.923c-2.764,0.95-2.246,5.009-5.009,6.132  c-1.382,0.518-3.282,0.518-4.578-0.259c-1.468-0.95-2.073-2.677-1.987-4.405C133.543,90.298,131.902,90.298,131.816,91.335"></path>
<path id="Fill-32" class="st2" d="M52.786,44.608c0.691-1.209,1.382-2.591,1.036-3.973c-0.345-1.209-1.296-2.073-2.418-2.591  c-1.296-0.605-2.764-0.691-4.146-0.605s-3.109,0.518-4.059-0.777c-1.814-2.418-0.864-5.7-0.518-8.378  c0.259-2.418-0.95-4.491-3.455-4.75c-3.196-0.345-5.269,2.073-6.737,4.578c-0.518,0.95,0.864,1.727,1.468,0.864  c0.777-1.296,1.555-2.677,2.937-3.368c1.123-0.605,3.023-0.691,3.8,0.518c0.691,1.123,0.173,2.764,0,3.973  c-0.259,1.468-0.259,2.937,0,4.405c0.173,1.209,0.605,2.591,1.468,3.541c0.95,1.036,2.246,1.296,3.628,1.209  c1.641-0.086,3.455-0.432,5.009,0.345c0.605,0.259,1.296,0.777,1.468,1.555c0.259,0.95-0.345,1.9-0.864,2.764  C50.886,44.695,52.268,45.558,52.786,44.608"></path>
<path id="Fill-34" class="st2" d="M32.403,62.573c-0.777,3.023-4.059,4.923-6.996,3.368c-3.282-1.641-2.937-5.355-3.023-8.464  c-0.086-2.332-0.95-6.651-4.146-6.391c-1.296,0.086-2.505,1.209-3.455,2.073c-1.036,0.95-2.073,2.073-3.282,2.764  c-1.468,0.95-3.282,1.036-4.75,0.086c-1.814-1.123-2.505-3.196-2.418-5.182c0-1.036-1.641-1.036-1.641,0  c-0.173,3.455,1.9,6.91,5.528,7.514c3.455,0.518,5.787-2.246,8.119-4.232c0.518-0.432,1.468-1.382,2.246-1.296  c1.036,0.086,1.641,1.468,1.814,2.246c0.518,1.727,0.345,3.628,0.432,5.441c0.173,3.368,1.641,6.478,5.096,7.514  c3.628,1.036,7.169-1.382,8.119-4.923C34.217,61.969,32.662,61.537,32.403,62.573"></path>
<path id="Fill-36" class="st2" d="M27.134,85.807c-1.814-1.9-4.491-3.455-7.169-2.332c-2.764,1.123-2.937,4.232-3.714,6.737  c-0.345,1.123-1.036,2.937-2.505,2.85c-1.468-0.086-2.505-1.9-3.109-3.023c-1.036-2.073-1.9-4.837-4.319-5.7  c-2.85-1.123-5.528,1.382-6.91,3.628c-0.605,0.95,0.864,1.727,1.468,0.864c0.864-1.382,2.246-2.937,3.973-3.023  c1.641-0.086,2.591,1.382,3.196,2.591c1.209,2.332,2.332,6.046,5.441,6.391c3.282,0.432,4.319-3.455,4.923-5.873  c0.432-1.641,0.95-3.455,2.764-3.887c1.9-0.518,3.628,0.864,4.923,2.159C26.789,87.707,27.912,86.584,27.134,85.807"></path>
</svg>
